<svg width="24" height="25" viewBox="0 0 24 25" fill="none" xmlns="http://www.w3.org/2000/svg">
<path d="M23 3.43109C22.0424 4.10657 20.9821 4.6232 19.86 4.96109C19.2577 4.2686 18.4573 3.77778 17.567 3.55502C16.6767 3.33225 15.7395 3.38829 14.8821 3.71554C14.0247 4.0428 13.2884 4.62549 12.773 5.38481C12.2575 6.14412 11.9877 7.04343 12 7.96109V8.96109C10.2426 9.00666 8.50127 8.6169 6.93101 7.82654C5.36074 7.03617 4.01032 5.86973 3 4.43109C3 4.43109 -1 13.4311 8 17.4311C5.94053 18.8291 3.48716 19.53 1 19.4311C10 24.4311 21 19.4311 21 7.93109C20.9991 7.65254 20.9723 7.37469 20.92 7.10109C21.9406 6.09458 22.6608 4.8238 23 3.43109V3.43109Z" stroke="#EA9926" stroke-linecap="round" stroke-linejoin="round"/>
</svg>
